# xmcd
#
# Track frame offsets:
#	150
#	16339
#	32498
#	50410
#	62617
#	75324
#	89659
#	102102
#	116248
#	129937
#	144594
#	163797
#	179058
#	193248
#
# Disc length: 2750 seconds
#
# Revision: 0
# Processed by: cddbd v1.5.2PL0 Copyright (c) Steve Scherf et al.
# Submitted via: EasyCDDAExtractor 2010.6.0.0
#
DISCID=bd0abc0e
DTITLE=Various Artist - Mr Music Country  07 2012
DYEAR=2012
DGENRE=Country
TTITLE0=Martina McBride - Wrong baby wrong
TTITLE1=Brooks and Dunn - How long gone
TTITLE2=Willie Nelson - Just breathe
TTITLE3=Pam Tillis - I was blown away
TTITLE4=Tracy Byrd - Ten rounds with Jose Cuervo
TTITLE5=Merle Haggard - It's all in the movies
TTITLE6=Flaco Jiménez - This could be the one
TTITLE7=Eddie Rabbit - I love a rainy night
TTITLE8=Darius Rucker - Don't think I don't think about it
TTITLE9=Highway 101 - Somewhere tonight
TTITLE10=Alan Jackson - Gone country
TTITLE11=Abalone Dots and Ron Sexsmith - Regrets
TTITLE12=T. Graham Brown - Hell and high water
TTITLE13=John Anderson - I've got it made
EXTD=
EXTT0=
EXTT1=
EXTT2=
EXTT3=
EXTT4=
EXTT5=
EXTT6=
EXTT7=
EXTT8=
EXTT9=
EXTT10=
EXTT11=
EXTT12=
EXTT13=
PLAYORDER=
